<?xml version="1.0" encoding="utf-8"?>
<!-- Generator: Adobe Illustrator 22.0.1, SVG Export Plug-In . SVG Version: 6.00 Build 0)  -->
<svg version="1.1" id="Layer_1" xmlns="http://www.w3.org/2000/svg" xmlns:xlink="http://www.w3.org/1999/xlink" x="0px" y="0px"
	 viewBox="0 0 100 125" style="enable-background:new 0 0 100 125;" xml:space="preserve">
<style type="text/css">
	.st0{fill:#FFFFFF;}
</style>
<path class="st0" d="M84.4,82.8h10.3c1.8,0,3.3-1.5,3.3-3.3V69.3c0-1.8-1.5-3.3-3.3-3.3H84.4c-1.8,0-3.3,1.5-3.3,3.3v10.3
	C81.1,81.4,82.6,82.8,84.4,82.8z M85.3,72.2l2-2l2.3,2.3l2.3-2.3l2,2l-2.3,2.3l2.3,2.3l-2,2l-2.3-2.3l-2.3,2.3l-2-2l2.3-2.3
	L85.3,72.2z M84.4,34.1h10.3c1.8,0,3.3-1.5,3.3-3.3V20.5c0-1.8-1.5-3.3-3.3-3.3H84.4c-1.8,0-3.3,1.5-3.3,3.3v10.3
	C81.1,32.6,82.6,34.1,84.4,34.1z M85.3,23.4l2-2l2.3,2.3l2.3-2.3l2,2l-2.3,2.3l2.3,2.3l-2,2l-2.3-2.3L87.3,30l-2-2l2.3-2.3
	L85.3,23.4z M94.6,41.6H84.4c-1.8,0-3.3,1.5-3.3,3.3v10.3c0,1.8,1.5,3.3,3.3,3.3h10.3c1.8,0,3.3-1.5,3.3-3.3V44.9
	C97.9,43.1,96.5,41.6,94.6,41.6z M90.2,52.3l-2,2l-2-2l-1.9-1.9l2-2l1.9,1.9l4.6-4.6l2,2L90.2,52.3z M71.9,23.8H78v3.8h-4.2v20.6H78
	V52h-4.2v20.6H78v3.8h-6.1c-1,0-1.9-0.8-1.9-1.9V51.9H54.7v-3.8H70V25.7C70,24.6,70.9,23.8,71.9,23.8z M37.8,59.1l-7.6,22.3L22.6,59
	v-2.8c-10,0.1-13-4.2-13-4.2s5.7-0.1,5.4-15.2c-0.4-15.2,6.6-17.7,9.2-18.6c7.6-2.9,11.4,1.7,11.4,1.7c8.8-0.8,11.2,8.8,10.1,19.7
	c-1.1,10.9,4.9,12.6,4.9,12.6c-4.1,4.2-12.8,3.9-12.8,3.9v2.8l0,0V59.1z M2.1,81.6l1.5-8.5c0.5-2.8,2.3-5.1,4.8-6.3l9.4-4.6l1.9-1.2
	l-3.1,9.1l4.2-0.3l9.3,11.5l9.3-11.5l4.2,0.3l-3-8.9c0.5,0.3,1.1,0.6,1.6,0.9l9.6,4.7c2.5,1.2,4.3,3.6,4.8,6.3l1.5,8.5
	c0.1,0.6-0.4,1.2-1,1.2H30.6h-0.7H3.1C2.5,82.8,2,82.3,2.1,81.6z"/>
</svg>
