<?xml version="1.0" encoding="utf-8"?>
<!-- Generator: Adobe Illustrator 22.0.1, SVG Export Plug-In . SVG Version: 6.00 Build 0)  -->
<svg version="1.1" id="Layer_1" xmlns="http://www.w3.org/2000/svg" xmlns:xlink="http://www.w3.org/1999/xlink" x="0px" y="0px"
	 viewBox="0 0 68 85" style="enable-background:new 0 0 68 85;" xml:space="preserve">
<style type="text/css">
	.st0{fill:#FFFFFF;}
</style>
<path class="st0" d="M8.6,56.6C3.7,51,0.5,43.9,0.1,36h21.1c0.3,2.1,1.1,4,2.3,5.7L8.6,56.6z M11.4,59.4l14.9-14.9
	c2.1,1.6,4.8,2.5,7.7,2.5s5.5-0.9,7.7-2.5l14.9,14.9C50.6,64.8,42.7,68,34,68S17.4,64.8,11.4,59.4z M0.1,32
	C1.1,14.8,14.8,1.1,32,0.1v21.1C26.4,22,22,26.4,21.2,32H0.1L0.1,32z M36,0.1c17.8,1,32,15.8,32,33.9c0,8.7-3.2,16.6-8.6,22.6
	L44.5,41.7c1.6-2.1,2.5-4.8,2.5-7.7c0-6.5-4.8-11.9-11-12.8V0.1L36,0.1z M34,43c-5,0-9-4-9-9s4-9,9-9s9,4,9,9S39,43,34,43z"/>
</svg>
