<?xml version="1.0" encoding="utf-8"?>
<!-- Generator: Adobe Illustrator 22.0.1, SVG Export Plug-In . SVG Version: 6.00 Build 0)  -->
<svg version="1.1" id="Layer_1" xmlns="http://www.w3.org/2000/svg" xmlns:xlink="http://www.w3.org/1999/xlink" x="0px" y="0px"
	 viewBox="0 0 1024 1280" style="enable-background:new 0 0 1024 1280;" xml:space="preserve">
<style type="text/css">
	.st0{fill:#FFFFFF;}
</style>
<path class="st0" d="M858.1,220.6c-0.1-0.5-0.2-1-0.3-1.5c0.1,1.3,0.2,2.6,0.2,3.9c0,0.7-0.3,4-0.3,4.6c-0.4,2-1,3.9-1.6,5.8
	l-0.3,0.9l-0.1,0.4c-0.1,0.2-0.1,0.4-0.2,0.5c0,0.1,0,0.1-0.1,0.2c0,0.1,0,0.1-0.1,0.1c-0.1,0.2-0.2,0.4-0.3,0.6
	c-0.4,0.8-0.8,1.6-1.2,2.4c-1.3,2.4-2.8,4.7-4.4,7c0.2-0.2,0.3-0.3,0.3-0.4c-0.1,0.1-0.2,0.3-0.5,0.6c-0.1,0.2-0.2,0.3-0.3,0.4l0,0
	c-0.3,0.3-0.5,0.6-0.8,1c-0.5,0.6-1.1,1.3-1.6,1.9c-2.2,2.5-4.6,5-7.1,7.3c-0.8,0.7-1.6,1.4-2.4,2.1c-0.4,0.3-0.7,0.7-1.1,1
	c-0.4,0.4-0.9,0.8-1.3,1.2c-0.8,0.7-1.7,1.4-2.5,2.1l0,0c0,0-0.1,0.1-0.2,0.1c-0.1,0.1-0.2,0.1-0.2,0.2l0,0
	c-0.1,0.1-0.2,0.2-0.3,0.3l0,0c-0.3,0.2-0.7,0.5-0.9,0.6c-0.4,0.3-0.9,0.6-1.3,0.9c-0.5,0.3-0.9,0.7-1.4,1c-0.4,0.3-0.8,0.5-1.1,0.8
	c-8.2,5.7-16.8,10.6-25.6,15.2c-3.9,2-7.8,3.9-11.8,5.7c-1.8,0.8-3.5,1.6-5.3,2.4c0,0-0.1,0-0.2,0.1c-0.1,0.1-0.3,0.1-0.5,0.2
	c0,0,0,0-0.1,0c-0.7,0.3-1.7,0.8-1.9,0.8c0.3-0.2,0.6-0.3,1-0.4h-0.1c0,0,0,0-0.1,0c-0.5,0.2-1,0.4-1.6,0.7
	c-8.2,3.3-16.6,6.4-25,9.2c-9.4,3.2-19,6-28.5,8.6c-2.9,0.8-5.9,1.6-8.8,2.3c-1.7,0.4-3.4,0.8-5,1.3c-1.5,0.4-3,0.8-4.6,1.1
	c-1.7,0.4-3.3,0.8-5,1.2c-0.8,0.2-1.5,0.4-2.3,0.5c-1.2,0.3-2.5,0.5-3.7,0.8c-1.3,0.3-2.7,0.6-4,0.9s-2.7,0.6-4,0.9
	c-1.8,0.4-3.6,0.7-5.4,1.1c-1.9,0.4-3.9,0.8-5.8,1.2c-1.6,0.3-3.1,0.6-4.7,0.9c-1.4,0.3-2.8,0.5-4.1,0.8c-1.5,0.3-2.9,0.5-4.4,0.8
	c-5.1,0.9-10.2,1.7-15.4,2.5c-0.6,0.1-1.1,0.2-1.7,0.3c-2.2,0.3-4.3,0.7-6.5,1c-1.2,0.2-2.3,0.3-3.5,0.5c-0.3,0-0.6,0.1-0.9,0.1
	c-0.1,0-0.2,0-0.3,0s-0.1,0-0.1,0h-0.1v-0.1c-0.1,0-0.2-0.3-0.3-0.3l0,0c0,0-0.1,0.1-0.2,0.1v-0.1H636l0,0c0,0,0,0.2,0.1,0.2
	l-0.1,0.2l0,0c-0.2,0-0.5,0.1-0.7,0.1c-0.1,0-0.2,0-0.3,0c-0.4,0.1-0.8,0.1-1.1,0.1c-2.1,0.3-4.1,0.5-6.2,0.8
	c-4.1,0.5-8.3,1-12.5,1.4c-3.7,0.4-7.5,0.8-11.2,1.1c-2,0.2-4.1,0.4-6.1,0.5c-2.3,0.2-4.5,0.4-6.7,0.6c-2.5,0.2-5,0.4-7.6,0.6
	c-2.1,0.1-4.2,0.3-6.4,0.4c-1.1,0.1-2.1,0.2-3.2,0.2c-1.1,0.1-2.1,0.1-3.2,0.2c-2.1,0.1-4.2,0.2-6.3,0.3c-2.2,0.1-4.3,0.2-6.5,0.3
	c-1.6,0.1-3.3,0.2-4.9,0.2c-3.3,0.1-6.5,0.3-9.8,0.3c-1.6,0-3.3,0.1-4.9,0.1c-2.1,0.1-4.3,0.1-6.5,0.2h-0.1c-2,0-4,0.1-6,0.1
	c-0.4,0-0.8,0-1.2,0c-1.9,0-3.8,0-5.7,0c-4.3,0-8.6,0-12.9,0c-0.1,0-0.3,0-0.4,0c-1.9,0-3.8,0-5.7-0.1c-0.6,0-1.2,0-1.8,0
	c-2,0-4-0.1-6-0.1c-4.5-0.1-9-0.2-13.5-0.4c-1,0-2-0.1-2.9-0.1c-1,0-2-0.1-2.9-0.1c-0.5,0-1,0-1.5-0.1c-1.7-0.1-3.3-0.1-5-0.2
	c-1.5-0.1-3-0.1-4.5-0.2c-1.1,0-2.2-0.3-3.3-0.3c-2.6-0.2-5.3-0.6-7.9-0.6h-0.1c-1.1,0-2.2,0-3.3-0.1c-1.1,0-2.2-0.1-3.3-0.2
	c-0.7,0-1.5-0.1-2.2-0.1c-0.2,0-0.4,0-0.6,0c-1.3-0.1-2.6,0-3.9-0.1c-4.3-0.3-8.7-0.7-13-1.1s-8.7-0.8-13-1.3
	c-0.4,0-0.9-0.1-1.3-0.1c-0.7-0.1-1.4-0.1-2.1-0.2c-0.1,0-0.3,0-0.4,0c-0.4,0-0.8-0.1-1.3-0.1c-0.6-0.1-1.3-0.1-1.9-0.2
	c-0.1,0-0.2,0-0.2,0c-2.6-0.3-5.2-0.6-7.8-0.9c-2.1-0.3-4.1-0.5-6.2-0.8c-0.3,0-0.5-0.1-0.8-0.2c-0.1,0-0.2-0.1-0.3-0.1v-0.2l0,0
	v0.1v0.1v-0.2l0,0l-0.1,0.2l0,0v0.1l-0.1-0.2l0,0v0.3c0,0-0.2-0.2-0.2-0.3l-0.1,0.1l-0.1,0.1h-0.1h-0.1c-0.1,0-0.2,0-0.2,0
	c-0.1,0-0.1,0.1-0.1,0.1v-0.1c-0.2,0-0.4,0-0.5-0.1c-0.1,0-0.1,0-0.2,0c-0.8-0.1-1.7-0.2-2.5-0.4c-2.9-0.4-5.7-0.8-8.6-1.3
	c-1.3-0.2-2.6-0.4-4-0.6c-1.3-0.2-2.6-0.4-4-0.6c-1.3-0.2-2.7-0.4-4-0.6c-4.4-0.7-8.8-1.5-13.2-2.4c-0.2,0-0.4-0.1-0.5-0.1
	c-2-0.4-3.9-0.8-5.9-1.1c-5.4-1-10.8-2.1-16.1-3.3c-0.4-0.1-0.9-0.2-1.4-0.3c-2.2-0.5-4.4-0.9-6.6-1.4c0,0-36.8-9.8-38.3-10.4
	c-3.3-1-6.6-2.1-9.9-3.1c-0.1,0-0.2,0-0.2-0.1c-1.5-0.4-2.9-0.9-4.3-1.4c-7.9-2.7-15.8-5.6-23.6-8.7c-0.3-0.1-0.7-0.3-1-0.4
	s-0.7-0.3-1-0.4l0,0c-0.1,0-0.1-0.1-0.2-0.1h0.1l0,0c-0.1,0-0.2-0.1-0.3-0.1c0.1,0,0.1,0.1,0.2,0.1c-0.1-0.1-0.3-0.1-0.5-0.2l0,0
	c-0.1,0-0.2-0.1-0.3-0.1s-0.1,0-0.2-0.1h0.1c-1.5-0.7-3-1.3-4.6-2c-4.1-1.8-8.1-3.8-12.1-5.8c-7.2-3.6-14.2-7.6-21-12
	c-3.1-2-6.1-4.2-9.1-6.3c-0.3-0.2-0.5-0.4-0.8-0.6l1.2,0.9c-1-0.7-1.5-1.2-1.6-1.3l0,0c0,0,0,0,0.1,0c-0.3-0.2-0.5-0.4-0.8-0.7
	c-1.1-0.9-2.2-1.9-3.3-2.8c-2.6-2.3-5.2-4.7-7.6-7.2c-0.2-0.2-0.9-1-1.7-2l0,0c-1.2-1.3-2.3-2.6-3.4-3.9l0,0v0.1
	c0.2,0.3,0.3,0.4,0.3,0.5c-0.1-0.2-0.7-1-1.1-1.5c0,0,0,0,0-0.1l0,0c-0.1-0.1-0.2-0.2-0.3-0.3c0,0,0,0-0.1-0.1
	c-0.9-1.3-1.8-2.7-2.7-4.1c-0.9-1.5-1.7-3-2.5-4.6c0,0,0,0,0-0.1c-0.2-0.5-1-2.5-1-2.6c0.3,0.4,0.5,1,0.7,1.5
	c-0.4-1.2-0.9-2.4-1.2-3.6c-0.6-2-0.8-4-1.3-6c-0.1-1.4-0.1-2.8-0.1-4.2c0-0.3,0-0.6,0-0.9l0,0c0,0-0.1,0,0-0.1v-0.1V220l0.1-0.4
	v-0.1c0-0.7,0.1-1.3,0.2-2c0,0.7-0.1,1.2-0.1,1.6c0.1-0.8,0.3-1.8,0.5-2.7c0.3-1.5,0.8-2.9,1.2-4.3c0.1-0.4,0.3-0.9,0.5-1.3
	c1.4-2.7,2.7-5.5,4.4-8.1c0.8-1.3,1.7-2.5,2.5-3.7c0.4-0.4,0.7-0.9,1.1-1.3c2.5-3,5.3-5.8,8.2-8.5c1.4-1.3,2.8-2.6,4.3-3.9
	c0.8-0.7,1.6-1.4,2.5-2c0.2-0.2,0.7-0.6,1.2-0.9c-0.2,0.1-0.4,0.3-0.6,0.4c0.1-0.1,0.2-0.2,0.3-0.2c0.6-0.5,1-0.8,1.1-0.9
	c-0.1,0-0.1,0.1-0.2,0.2l0.1-0.1c0.8-0.6,1.6-1.1,2.4-1.7c2-1.4,4.1-2.8,6.2-4.2c4-2.6,8-5,12.1-7.3c8.7-4.9,17.8-9.2,26.9-13.2
	c0.6-0.2,1.3-0.6,1.9-0.8c1.2-0.5,2.3-0.9,3.5-1.4c3-1.2,5.9-2.3,8.9-3.4c5.6-2.1,11.2-4,16.9-5.9c25.8-8.4,52.2-14.7,78.8-19.7
	c7.4-1.4,14.8-2.6,22.3-3.8c3.5-0.5,7.1-1.1,10.6-1.6c0.4,0,1.3-0.2,2.1-0.3c0.1,0,0.3,0,0.5-0.1c0.2,0,0.5-0.1,0.7-0.1
	c0,0,0.1,0,0.2,0c1.5-0.2,3-0.4,4.5-0.6c15.8-2,31.6-3.5,47.5-4.7c65.8-4.8,132.3-3.2,197.8,5.2c0.2,0,0.4,0,0.6,0.1
	c-0.1,0-0.3,0-0.4-0.1c0.8,0.1,1.2,0.1,1.5,0.1c-0.2,0-0.6,0-0.9-0.1c0.5,0.1,0.9,0.1,1.3,0.2c1.7,0.2,3.3,0.5,4.9,0.7
	c4.1,0.6,8.1,1.2,12.2,1.9c7.1,1.2,14.2,2.4,21.3,3.8c13.7,2.6,27.4,5.6,40.9,9.1c12.5,3.2,24.9,6.8,37.1,10.9
	c5.8,2,11.6,4,17.3,6.2c2.6,1,5.1,2,7.6,3c1,0.4,2.1,0.9,3.1,1.3c-0.5-0.1-0.8-0.3-1.1-0.3c0.8,0.3,1.8,0.6,2.3,0.8
	c9.5,4.2,18.9,8.8,28,14c4.2,2.4,8.3,5,12.3,7.7c1.8,1.2,3.5,2.4,5.2,3.7c0.6,0.4,1.1,0.8,1.7,1.2c-2.8-2.4,2.7,2,0.6,0.5
	c-0.2-0.1-0.4-0.3-0.6-0.5c0.1,0.1,0.2,0.2,0.3,0.2c6.1,5,11.6,10.4,16.7,16.3c0.2,0.3,0.4,0.5,0.6,0.8c1.1,1.5,2.1,3.1,3.1,4.7
	c0.8,1.4,1.6,2.8,2.3,4.2c0.2,0.4,0.4,0.7,0.5,1.1c0.9,2.7,1.8,5.4,2.4,8.2c0,0.2,0.1,0.3,0.1,0.5c0-0.3,0-0.5-0.1-0.8
	C857.5,214.6,858.3,221.4,858.1,220.6z"/>
<path class="st0" d="M857.8,420.1c0,0.2,0.1,0.4,0.1,0.5s-0.7,2.1-1.8,5.6c0,0.1-0.1,0.2-0.1,0.3c0,0.2-0.1,0.3-0.1,0.5v0.1
	c0,0.1,0,0.2-0.1,0.2l0,0c0,0,0.1,0,0.2,0l0,0c0,0.2,0.1,0.3,0.1,0.5l0,0c0,0.1-0.3,0.2-0.3,0.3c0,0-0.1,0.1-0.2,0.1l-0.1,0.1
	c-0.1,0.2-0.2,0.5-0.4,0.8c0,0,0,0,0,0.1c-0.2,0.3-0.3,0.7-0.4,0.9c-0.5,1-1,1.9-1.6,2.8l0,0c-0.6,1.1-1.3,2.1-1.9,3.2
	c-0.4,0.6-0.8,1.2-1.2,1.8c0.4-0.3-1.6,2.5-1.5,2c-2.8,3.2-5.6,6.3-8.7,9.2c-1.8,1.7-3.6,3.3-5.5,4.8c-0.6,0.5-1.2,1-1.9,1.5l0,0
	c-1.4,1.3-2.8,2.5-1,0.8c-0.1,0-0.1,0.1-0.2,0.1c0,0,0,0-0.1,0.1c-0.9,0.8-1.9,1.5-3,2.1l0,0c-9.3,6.6-19.2,12.2-29.3,17.3
	c-3.9,1.9-7.8,3.8-11.8,5.6c-0.6,0.3-5.5,2.9-5.9,2.6c0.8-0.3,1.6-0.7,2.4-1c-0.8,0.3-1.6,0.7-2.4,1c-1.2,0.5-2.5,1-3.7,1.5
	c-40.8,16.2-84.1,26-127.4,32.7c-3.2,0.5-6.3,1-9.5,1.4c-1,0.1-1.9,0.4-2.9,0.4l0,0c-0.1,0-0.1,0-0.2,0c-0.1,0-0.1,0-0.2,0
	c0,0,0,0-0.1,0H637c0,0-0.1,0-0.2,0c-0.1,0-0.1,0-0.2,0h-0.1c-0.1,0-0.1,0-0.2,0c0,0,0,0-0.1,0s-0.1,0-0.2,0c-0.4,0-0.7,0.1-0.9,0.1
	c-6.9,0.9-13.8,1.7-20.6,2.4c-13,1.4-26,2.5-39,3.3c-20.8,1.3-41.7,1.8-62.5,1.8c-0.2,0-0.3,0-0.5,0c-3.1,0-6.2,0-9.3-0.1
	c-5.5,0-11-0.1-16.5-0.3c-1.7,0-3.3-0.1-5-0.1c-1,0-2.1-0.1-3.1-0.1c-0.2,0-0.5,0-0.7,0c-0.4,0-0.8,0-1.1,0c-1.2,0-2.5-0.1-3.7-0.1
	c-2.2-0.1-4.4-0.2-6.6-0.3s-4.3-0.2-6.5-0.3c-0.1,0-0.2,0-0.2,0c-0.4,0-0.8,0-1.2-0.1c-2.3-0.1-4.5-0.3-6.8-0.4h-0.1
	c-2.7-0.2-5.3-0.3-8-0.5c-0.1,0-0.1,0-0.1,0c-5.1-0.3-10.2-0.8-15.2-1.2c0,0,0,0-0.1,0c-0.6,0-1.2-0.1-1.8-0.2
	c-1.5-0.1-3-0.3-4.5-0.4c-0.3,0-0.6,0-0.9-0.1c-0.9-0.1-1.8-0.2-2.6-0.3c-0.1,0-0.1,0-0.2,0c-0.4,0-0.8-0.1-1.2-0.1
	c-0.3,0-0.7-0.1-1-0.1c-0.6-0.1-1.2-0.1-1.8-0.2c-1-0.1-2-0.2-3.1-0.3c-2.7-0.3-5.4-0.6-8.1-0.9c-1.2-0.1-2.5-0.3-3.7-0.4
	c-0.9-0.1-1.9-0.2-2.8-0.3c-0.5-0.1-1-0.1-1.5-0.2c-0.7-0.1-1.5-0.2-2.2-0.3c-0.5-0.1-1-0.1-1.5-0.2c-0.2,0-0.4,0-0.7-0.1
	c0,0,0,0-0.1,0s-0.3,0-0.4-0.1c-0.2,0-0.4,0-0.5-0.1c-0.1,0-0.2,0-0.3,0c-0.1,0-0.3,0-0.4,0l0,0c0,0-0.1,0-0.2,0l0,0h-0.1v-0.1l0,0
	l0,0l0,0l0,0l0,0c-0.1,0-0.1,0-0.2,0l0,0h-0.1v0.1v0.1H388l0,0v-0.1l-0.1,0.1v0.1l0,0l0,0c0,0,0,0-0.1,0h-0.1h-0.1l0,0h-0.1
	l-0.1-0.2c-0.1,0-0.2-0.1-0.2-0.1c-0.1,0-0.2,0-0.4-0.1c-0.7-0.1-1.3-0.2-1.9-0.3c-0.1,0-0.2,0-0.3,0c-0.1,0-0.2,0-0.3-0.1
	c-2.7-0.4-5.3-0.8-8-1.2c-0.2,0-0.5-0.1-0.7-0.1c-1.9-0.3-3.8-0.6-5.7-0.9c-0.3,0-0.5-0.1-0.8-0.1s-0.5-0.1-0.8-0.1
	c-0.4-0.1-0.8-0.1-1.2-0.2c-1.5-0.3-3.1-0.5-4.6-0.8c-0.8-0.1-1.7-0.3-2.5-0.4c-0.2,0-0.4-0.1-0.7-0.1c-1.8-0.3-3.5-0.6-5.3-0.9
	c-1.5-0.3-3-0.5-4.6-0.8c-0.8-0.2-1.7-0.3-2.5-0.5c-2.2-0.4-4.3-0.8-6.5-1.3c-0.2,0-0.4-0.1-0.7-0.1c-2-0.4-4-0.8-6-1.3
	c-0.2,0-0.3-0.1-0.5-0.1c-2-0.4-4-0.9-6.1-1.3c-0.1,0-0.1,0-0.2,0c-2.1-0.5-4.1-0.9-6.1-1.4c-1.4-0.3-2.8-0.7-4.3-1
	c-0.3-0.1-0.7-0.2-1-0.2c-0.6-0.1-1.1-0.3-1.7-0.4c-0.1,0-0.2,0-0.3-0.1c-1.5-0.4-3-0.7-4.5-1.1l0,0c-2.4-0.6-4.8-1.2-7.2-1.8
	c-2.8-0.7-5.5-1.5-8.3-2.3c-1.1-0.3-2.2-0.6-3.3-0.9c-1.1-0.3-2.2-0.6-3.3-1c-1.2-0.4-2.5-0.7-3.7-1.1c-1.7-0.5-3.4-1-5.1-1.5
	c-10.4-3.2-20.7-6.8-30.8-10.8c-1.4-0.5-2.8-1.1-4.1-1.7c-0.6-0.2-1.2-0.5-1.8-0.7l0,0l0,0c0,0-0.1,0-0.1-0.1h-0.1
	c1.6,0.7-1.8-0.7-2.1-0.8c0.1,0,0.5,0.2,1.2,0.5c-0.1-0.1-0.3-0.1-0.4-0.2c0,0,0,0-0.1,0c-0.4-0.1-0.7-0.3-1.1-0.5
	c-0.4-0.2-0.8-0.3-1.1-0.5c0,0,0,0-0.1,0s-0.1,0-0.2-0.1c-0.1,0-0.2-0.1-0.3-0.1c0,0-0.1,0-0.1-0.1c-0.2-0.1-0.3-0.1-0.5-0.2h-0.1
	c-0.9-0.4-1.8-0.8-2.6-1.2c-2.5-1.1-5-2.5-7.5-3.6c-0.3-0.1-0.5-0.3-0.8-0.4l0,0c-0.8-0.4-1.7-0.9-2.5-1.3s-1.7-0.9-2.5-1.3
	s-1.7-0.9-2.5-1.3c-0.8-0.5-1.7-0.9-2.5-1.4c-0.8-0.4-1.5-0.8-2.3-1.3c-1.2-0.7-2.3-1.3-3.4-2c-1.1-0.7-2.2-1.3-3.3-2
	c-0.7-0.4-1.4-0.9-2.1-1.3c-0.2-0.1-0.3-0.2-0.5-0.3c-0.6-0.4-1.3-0.8-1.9-1.3c-0.7-0.4-1.4-0.9-2.1-1.4c-0.1-0.1-0.2-0.1-0.3-0.2
	c-0.2-0.1-0.3-0.2-0.5-0.3c-0.8-0.5-1.6-1.1-2.5-1.7c-0.8-0.6-1.7-1.2-2.5-1.8c-0.1-0.1-0.3-0.2-0.4-0.3c-0.1-0.1-0.4-0.3-0.7-0.5
	c-0.2-0.1-0.4-0.3-0.5-0.4c0,0-0.1,0-0.1-0.1c2.2,1.9-3.8-2.7,0,0c0,0-0.1-0.1-0.2-0.1l0,0l0,0c0,0,0,0-0.1,0s0,0-0.1,0
	c0,0-0.1-0.1-0.2-0.1l0,0l0,0c-0.3-0.2-0.5-0.4-0.6-0.5c-2.1-1.7-4.2-3.5-6.2-5.3c-0.4-0.4-0.8-0.7-1.2-1.1
	c-0.3-0.3-0.6-0.5-0.8-0.8c-0.3-0.3-0.7-0.6-1-1c-0.3-0.3-0.5-0.5-0.8-0.8c-0.1-0.1-0.2-0.2-0.3-0.3c-0.1-0.1-0.2-0.2-0.3-0.3
	c-0.5-0.5-1-1-1.5-1.6c-0.6-0.6-1.2-1.3-1.8-1.9c-0.1-0.1-0.1-0.1-0.2-0.2c0-0.1-0.1-0.1-0.1-0.2c-0.7-0.8-1.3-1.5-2-2.3
	c0,0,0,0-0.1-0.1l0,0l0,0c0.1,0.2,0.1,0.2-0.3-0.4c-0.1-0.1-0.1-0.2-0.2-0.4c-0.1-0.2-0.4-0.4-0.4-0.6l0,0h-0.1l-0.1-0.1l0,0l0,0
	l-0.1-0.1v0.1h-0.1l0,0l-0.1-0.2c0.1,0,0.1,0,0.2,0c-0.3-0.5-0.7-1-1-1.5c-0.3-0.4-0.6-0.9-0.8-1.3l-0.6-1c-0.5-0.8-0.9-1.5-1.4-2.3
	c0-0.1-0.1-0.2-0.1-0.3c-0.4-0.8-0.8-1.5-1.2-2.3c-0.3-0.6-0.6-1.6-1-2.3c0,0.1,0.1,0.2,0.1,0.3l0,0c0.3,0.7,0.6,1.7,0.7,1.9
	c0,0,0,0,0-0.1v-0.1l0,0c0-0.1-0.1-0.3-0.1-0.4v-0.1c0,0,0,0,0-0.1c-0.2-0.5-0.4-1.1-0.6-1.4c0-0.1-0.1-0.1-0.1-0.2c0,0,0,0,0-0.1
	c0.1,0,0.1,0.1,0.1,0.1c-0.1-0.4-0.3-0.8-0.4-1.2c-0.5-1.6-1-3.2-1.4-4.8c0-0.2-0.1-0.3-0.1-0.5l-0.1-0.1c-0.1-0.3-0.2-0.6-0.2-0.9
	c0,0.1,0,0.2,0,0.2s0,0,0-0.1c0,0,0,0,0-0.1c0,0,0,0,0,0.1c0,0,0,0,0-0.1l0,0l0,0c0-0.2,0-0.5-0.1-0.7c0-0.1,0-0.2,0-0.3
	c-0.2-1-0.3-2,0-0.8c-0.1-0.6-0.1-0.8-0.1-0.9c0,0.1,0.3,0.8,0.3,1.6c0,0.2,0.1,0.3,0.1,0.5c0,0,0,0.1,0,0.2c0-0.2-0.1-0.4-0.1-0.6
	c0-1.7-0.1-3.4-0.1-5.1V292.3c3,2.5,6.2,4.9,9.4,7.2c0.4,0.3,0.9,0.6,1.3,0.9c11.3,7.8,23.5,14.5,35.7,20.2
	c18.8,8.9,38.4,16.2,58.3,22.3c4.9,1.5,13.4,4,18.8,5.4l0,0c1.6,0.4,3.1,0.8,4.7,1.2c2,0.5,6.2,1.6,6.3,1.6c1.5,0.4,3,0.8,4.4,1.2
	c1.4,0.3,2.8,0.7,4.1,1c0.1,0,0.3,0,0.4,0.1l0,0c26.7,6.2,53.8,11,81.1,14.4c1.6,0.2,3.1,0.4,4.7,0.6c40.2,4.8,80.7,6.9,120.9,6.8
	c8.9,0,17.8-0.2,26.7-0.4c0.6,0,1.3,0,1.9-0.1c8.5-0.3,16.9-0.6,25.4-1.1c43.7-2.5,87.5-7.7,130.4-16.6c1.4-0.3,2.8-0.6,4.2-0.9
	c1.2-0.3,2.4-0.5,3.7-0.8c0.6-0.1,1.2-0.3,1.8-0.4c6.2-1.4,12.3-2.8,18.4-4.4c29.7-7.5,58.9-17.3,86.5-30.5
	c7.8-3.7,15.6-7.8,23.2-12.3c0.8-0.5,1.7-1,2.5-1.5c1.1-0.7,2.2-1.4,3.2-2.1c1.1-0.7,2.3-1.5,3.4-2.2c0.6-0.4,1.2-0.8,1.7-1.2
	c3.4-2.3,6.7-4.8,9.9-7.4V412c0,2-0.6,5-0.3,7.3c0.1-0.3,0.2-0.6,0.3-0.9l0,0c0.1-0.3,0.2-0.6,0.3-0.9c-0.2,0.6-0.3,1.5-0.4,2.1
	C857.9,419.8,857.8,419.9,857.8,420.1z"/>
<path class="st0" d="M849.9,491.9c2.8-2,5.5-4,8.1-6.2v124.5c0,0.6-0.1,1.2-0.1,1.8c-0.1,0.5-0.2,1-0.3,1.5c0,0.1-0.1,0.3-0.1,0.4
	c0,0.2-0.1,0.3-0.1,0.5c-0.1,0.4-0.2,0.7-0.3,1.1v0.1c-0.3,1-0.6,2-0.9,3.1c-0.1,0.3-0.3,0.9-0.6,1.5c0,0.1-0.1,0.2-0.1,0.2l0,0
	c0,0.1-0.1,0.2-0.1,0.3l-0.4,0.8c0,0.1-0.1,0.2-0.1,0.3c-0.3,0.6-0.6,1.2-1,1.8c-0.2,0.3-0.3,0.6-0.5,0.9c-0.1,0.1-0.1,0.3-0.2,0.4
	c-0.1,0.2-0.2,0.4-0.3,0.5c-0.2,0.3-0.3,0.5-0.5,0.8c-1,1.6-2,3.2-3.1,4.8l-0.1,0.1c-0.1,0.1-0.1,0.2-0.2,0.3
	c-0.1,0.1-0.1,0.2-0.2,0.3l0,0c-0.1,0.1-0.2,0.3-0.3,0.4c-0.9,1.1-1.9,2.2-2.8,3.3c-4.1,4.5-8.5,8.6-13.2,12.5
	c-0.2,0.2-0.4,0.3-0.6,0.5c-0.1,0.1-0.3,0.2-0.4,0.3l-0.1,0.1c-0.1,0.1-0.3,0.2-0.4,0.3c0,0,0,0-0.1,0l-0.1,0.1
	c-0.2,0.1-0.4,0.3-0.6,0.4c0,0,0.1,0,0.1-0.1c-1,0.7-1.9,1.4-2.9,2.1c-3.1,2.2-6.3,4.3-9.5,6.2c-5,3.1-10.1,5.9-15.3,8.6
	c-0.2,0.1-0.4,0.2-0.6,0.3c-3.1,1.6-6.2,3.1-9.3,4.6c-1.8,0.8-3.6,1.7-5.4,2.5c-0.4,0.2-0.8,0.4-1.2,0.5c-0.7,0.3-1.4,0.6-2.1,0.9
	c-0.1,0-0.2,0.1-0.3,0.1c0,0,0,0-0.1,0c-0.2,0.1-0.5,0.2-0.7,0.3c-0.1,0-0.1,0-0.1,0.1c-0.1,0.1-0.3,0.1-0.4,0.2h-0.1h-0.1
	c0,0-0.1,0-0.1,0.1c-1.3,0.5-2.6,1-3.9,1.6c-2.8,1.1-5.7,2.2-8.5,3.3c-5.7,2.1-11.5,4.1-17.3,6c-12.2,4-24.5,7.5-37,10.6
	c-13.7,3.4-27.5,6.4-41.4,9c-7.3,1.4-14.6,2.6-22,3.8c-3.6,0.6-7.2,1.1-10.9,1.6c-0.3,0-0.5,0.1-0.8,0.1c0,0,0,0-0.1,0H640
	c-0.6,0.1-1.7,0.2-2.6,0.3c0,0.3,0,0-0.1,0c0,0-0.1,0.5-0.2,0.5l0,0c-0.1,0-0.2-0.2-0.3-0.2l-0.1-0.1c-1.2,0.2-3.3,0.4-3.9,0.5
	c-16.3,2.1-32.8,3.6-49.2,4.8c-1.8,0.1-3.6,0.2-5.5,0.4c-1.1,0.1-2.2,0.1-3.3,0.2s-2.2,0.1-3.3,0.2c-1.3,0.1-2.6,0.2-4,0.2
	c-46.8,2.6-93.8,1.9-140.4-2.1c-7.4-0.6-14.8-1.4-22.1-2.2c-3.5-0.4-7-0.8-10.4-1.2c-1.7-0.2-3.4-0.4-5.2-0.6
	c-0.6-0.1-1.1-0.1-1.7-0.2c-0.1,0-0.4,0-0.6,0c-0.1,0-0.3,0-0.4,0c0,0.1,0,0.2,0,0.2l0.1,0.2l0,0c-0.1,0-0.1,0-0.2,0h-0.1l0,0
	c0-0.4-0.1-0.5-0.1-0.5c-0.1,0-0.1,0.2-0.2,0.2c-13.8-1.9-27.4-4.3-41.1-6.9c-20.8-4-41.5-8.9-61.8-15c-3.3-1-6.5-2-9.7-3
	c-1-0.3-1.9-0.6-2.9-0.9c-0.7-0.2-1.3-0.4-1.9-0.7c-2.8-0.9-5.5-1.9-8.3-2.9c-1.4-0.5-2.7-1-4.1-1.5h-0.1c-0.5-0.2-1.1-0.4-1.6-0.6
	c-0.8-0.3-1.6-0.6-2.4-0.9c-1.7-0.6-3.3-1.3-5-1.9h-0.1c-1-0.4-1.9-0.8-2.9-1.1c-0.8-0.3-1.6-0.7-2.4-1h0.1l0,0
	c-0.1,0-0.2-0.1-0.4-0.2c-0.2-0.1-0.4-0.2-0.7-0.3c-0.1,0-0.2-0.1-0.3-0.1c-0.3-0.1-0.5-0.2-0.8-0.4h-0.1c0,0,0,0-0.1,0
	c-0.7-0.3-1.4-0.6-2.1-0.9c-0.6-0.3-1.2-0.5-1.8-0.8c-0.2-0.1-0.5-0.2-0.7-0.3c-1-0.4-1.9-0.9-2.9-1.3c-1.2-0.5-2.4-1.1-3.5-1.7
	c-1.6-0.8-3.2-1.5-4.7-2.3c-4.5-2.2-8.9-4.6-13.2-7.1c-0.3-0.2-0.7-0.4-1-0.6c-2-1.2-4.1-2.4-6.1-3.7c-2.9-1.9-5.8-3.8-8.6-5.8
	c-0.3-0.2-1.6-1.1-2.3-1.7l0,0l-0.1-0.1l0,0l0,0c0,0-0.1,0.1-0.1,0c0,0,0,0.1-0.1,0.1l0,0l-0.1-0.2v-0.1c-0.1-0.1-0.1-0.2-0.2-0.2
	c-0.1,0-0.1-0.1-0.2-0.2c-0.3-0.2-0.6-0.5-0.8-0.7c-0.4-0.3-0.8-0.7-1.2-1c-0.2-0.1-0.4-0.3-0.5-0.4c-0.3-0.2-0.5-0.4-0.8-0.6
	c-0.2-0.2-0.4-0.4-0.7-0.6c-0.7-0.6-1.4-1.2-2-1.8c-0.5-0.4-0.9-0.8-1.4-1.3c-0.6-0.5-1.1-1.1-1.7-1.6c-0.2-0.2-0.3-0.3-0.5-0.5
	s-0.3-0.3-0.5-0.5c-0.2-0.3-0.5-0.5-0.7-0.7l0,0c-1.6-1.6-3.2-3.4-4.7-5.1c-0.2-0.2-1.2-1.5-1.9-2.3l0,0l-0.1-0.1l-0.1-0.1
	c-0.1-0.1-0.2-0.3-0.3-0.4c-0.1-0.2-0.2-0.3-0.3-0.5l0,0c0,0,0-0.1-0.1-0.1c-0.3-0.5-0.6-0.9-0.9-1.4c-0.7-1-1.3-2-1.9-3.1
	c-0.3-0.5-0.6-1-0.9-1.6c-0.1-0.2-0.2-0.3-0.3-0.5c-0.1-0.3-0.3-0.5-0.4-0.8c0,0,0-0.1-0.1-0.1c-0.4-0.7-0.8-1.5-1.1-2.2
	c-0.1-0.1,0-0.2-0.1-0.3v-0.1l0,0l0,0c0,0,0,0-0.1,0l0,0c-0.1-0.2-0.2-0.5-0.2-0.7l0,0c-0.4-1-0.7-1.9-1-2.9c0-0.1,0-0.2-0.1-0.3
	c-0.2-0.6-0.4-1.3-0.6-1.9c0-0.1-0.1-0.3-0.1-0.4c0-0.1,0-0.1,0-0.2c0-0.1,0-0.1,0-0.2c0-0.1,0-0.1-0.1-0.2
	c-0.2-0.9-0.4-1.7-0.5-2.6c0-0.2,0-0.3,0-0.5c0-0.6-0.1-1.2-0.1-1.7V484.6c4.6,3.7,9.5,7.2,14.4,10.5s9.9,6.3,15,9.2
	c4.7,2.7,10.1,6.2,15.7,8.1c0.1,0,0.2,0.1,0.3,0.1c1.7,0.8,3.4,1.6,5.2,2.4c0.8,0.3,1.6,0.7,2.3,1c1.3,0.6,2.6,1.1,3.9,1.7
	c0.9,0.4,1.8,0.8,2.7,1.2c32.9,14,67.6,23.7,102.6,30.9c23.6,4.8,47.4,8.6,71.4,11.4c2.7,0.3,5.3,0.6,8,0.9c0.1,0,0.1,0,0.2,0
	c0.9,0.1,1.7,0.2,2.5,0.3c7.2,0.7,14.3,1.4,21.4,2c6.8,0.6,13.6,1.1,20.4,1.5c0.1,0,0.2,0,0.2,0c0.9,0.1,1.7,0.1,2.6,0.2
	c9.8,0.6,19.7,1,29.5,1.3c54.5,1.6,108.9-1.1,163-8.5c0.2,0,0.3,0,0.5-0.1c16.9-2.4,33.6-5.3,50.3-8.7
	c35.4-7.2,70.2-17.2,103.5-31.3c9.1-3.9,18.5-8.2,27.6-13.2c0.2-0.1,0.3-0.2,0.5-0.3c0.6-0.4,1.3-0.7,1.9-1.1l0,0
	C837.3,500.4,843.8,496.3,849.9,491.9z"/>
<path class="st0" d="M858,678.3v120.4c-0.1,0.8-0.1,1.5-0.2,2.3c0,1.2,0,2.4-0.1,3.6c-0.5,2.4-1,4.7-1.8,7.1
	c-0.4,1.1-0.9,2.2-1.2,3.3c0.1-0.4,0.2-0.7,0.3-1c-0.1,0.2-0.1,0.3-0.2,0.4c-1.3,2.5-2.7,5-4.3,7.3c-0.5,0.7-1,1.5-1.5,2.2
	c0.2-0.2,0.4-0.4,0.5-0.6c-0.3,0.4-0.7,0.8-1,1.2c-0.2,0.2-0.3,0.5-0.5,0.7c-0.4,0.5-0.8,1-1.1,1.1c-1.8,2-3.6,4-5.5,5.9
	c-2.2,2.2-4.5,4.2-6.8,6.2c-1.3,1.1-3,2.1-4.1,3.3c-0.5,0.4-1,0.7-1.4,1.1c-13.2,9.5-27.6,17.2-42.4,23.8c-1.8,0.8-3.8,1.5-5.5,2.4
	c1.5-0.8,2.2-1.2,2.3-1.2c-0.2,0.1-3.3,1.6-4.3,2c-4.8,1.9-9.5,3.7-14.4,5.5c-9.4,3.4-18.9,6.4-28.5,9.2
	c-21.7,6.3-43.7,11.3-66,15.3c-5.8,1-11.7,2-17.5,3c-2.7,0.4-5.4,0.8-8.1,1.2c-1.6,0.2-3.3,0.5-4.9,0.7c-0.4,0.1-0.9,0.1-1.3,0.2
	c-0.1,0-0.3,0-0.4,0l0,0c-0.1,0-0.1,0-0.2,0c-0.1,0-0.2,0-0.3,0s-0.2,0-0.3,0c0.1,0,0.1,0,0.2,0c-12.7,1.8-25.4,3.1-38.2,4.2
	c-53.8,4.8-108.1,5-162,1c-13.3-1-26.6-2.3-39.8-3.9c-2.8-0.3-5.6-0.7-8.4-1c-0.3,0-1.5-0.2-2.4-0.3c0.1,0,0.3,0,0.5,0
	c-0.9-0.1-1.9-0.3-2.8-0.4c-6.5-0.9-13-1.9-19.5-3c-22.8-3.8-45.4-8.5-67.7-14.5c-19.1-5.2-37.8-11.4-56.1-18.8
	c0.1,0,0.2,0.1,0.2,0.1c3,1.3-0.7-0.2-1.3-0.5c0.1,0,0.3,0.1,0.6,0.2c-0.9-0.4-1.8-0.8-2.6-1.2c-1.8-0.8-3.6-1.6-5.4-2.5
	c-4.2-1.9-8.3-4-12.4-6.1c-6.9-3.6-13.7-7.5-20.2-11.8c-2.9-1.9-5.6-3.9-8.4-5.9c0.2,0.2,0.4,0.4,0.7,0.5c2.8,2.4-4.1-3-1.1-0.8
	c0.1,0.1,0.2,0.2,0.3,0.2c-0.2-0.2-0.5-0.4-0.7-0.6c-1.5-1.3-3-2.5-4.5-3.8c-4-3.6-7.5-7.5-11-11.5c0.3,0.4,0.5,0.6,0.5,0.6
	c-0.2-0.1-1-1.1-1.7-1.9l0,0c-0.2-0.2-0.3-0.4-0.4-0.6c-0.9-1.2-1.7-2.5-2.5-3.8c-1.2-2-2.2-4-3.2-6.1c-0.1-0.3-0.2-0.5-0.3-0.8
	c-0.4-1.1-0.7-2.2-1-3.3s-0.6-2.2-0.8-3.3c-0.1-0.3-0.1-0.6-0.2-0.9c-0.1-0.8-0.2-1.7-0.2-2.5c-0.1-1.6-0.5-2.8-0.5-4.3l0,0
	c0-0.3,0-0.7,0-1.1l0,0l0,0v-0.1l0,0c0.1-2.2,0-4.5,0-6.7v-112c21.3,17.4,48,29.9,72.5,39.5c1.4,0.6,2.9,1.1,4.3,1.7h0.1
	c1.5,0.6,3,1.1,4.5,1.6c0.7,0.3,1.4,0.5,2.2,0.8c1.4,0.5,2.7,1,4.1,1.5c0.9,0.3,1.8,0.6,2.7,0.9l0,0c1.6,0.6,3.2,1.1,4.8,1.6
	c2.9,1,5.9,1.9,8.8,2.8c8.9,2.8,17.8,5.3,26.8,7.5c9.7,2.4,19.4,4.7,29.1,6.7c0.1,0,0.2,0,0.3,0c25,5.1,50.3,8.9,75.6,11.8
	c18.4,2.1,36.9,3.7,55.4,4.7c1.8,0.1,3.7,0.2,5.5,0.3c8,0.4,16,0.7,23.9,0.9c14.4,0.4,28.8,0.5,43.2,0.2c1.8,0,3.5-0.1,5.3-0.1
	c0.3,0,0.5,0,0.8,0c2.2,0,4.4-0.1,6.6-0.2c1.1,0,2.2-0.1,3.3-0.1c17.3-0.6,34.6-1.6,51.9-3.1c15.8-1.4,31.7-3,47.5-5.2
	c14.1-1.9,28.1-4.2,42.1-6.8c14.8-2.8,29.6-6,44.2-9.8c0.3-0.1,0.5-0.1,0.8-0.2c12-3.2,23.8-6.7,35.5-10.6
	c24.5-8.3,49-18.3,71.1-31.9C844.9,688.1,851.6,683.4,858,678.3z"/>
</svg>
