<?xml version="1.0" encoding="utf-8"?>
<!-- Generator: Adobe Illustrator 22.0.1, SVG Export Plug-In . SVG Version: 6.00 Build 0)  -->
<svg version="1.1" id="Layer_1" xmlns="http://www.w3.org/2000/svg" xmlns:xlink="http://www.w3.org/1999/xlink" x="0px" y="0px"
	 viewBox="0 0 58 71.2" style="enable-background:new 0 0 58 71.2;" xml:space="preserve">
<style type="text/css">
	.st0{fill:#FFFFFF;}
</style>
<title>033 - Online Resource</title>
<desc>Created with Sketch.</desc>
<g>
	<g>
		<path class="st0" d="M28,25.8V21h-3.7C25.3,23.5,26.6,25.2,28,25.8z"/>
		<path class="st0" d="M28,12V0.2c-2.4,1-4.8,5.4-5,11.8H28z"/>
		<path class="st0" d="M28,14h-5c0.1,1.7,0.3,3.4,0.7,5H28V14z"/>
		<path class="st0" d="M24.2,0.9C19.6,2.8,16.4,7.1,16,12h5C21.2,7.4,22.4,3.5,24.2,0.9z"/>
		<path class="st0" d="M30,0.2V12h5C34.8,5.7,32.4,1.2,30,0.2z"/>
		<path class="st0" d="M21.6,19c-0.4-1.6-0.6-3.3-0.6-5h-5c0.1,1.7,0.6,3.4,1.4,5H21.6z"/>
		<path class="st0" d="M36.3,19h4.2c0.8-1.6,1.3-3.3,1.4-5h-5C36.9,15.7,36.7,17.4,36.3,19z"/>
		<path class="st0" d="M35,14h-5v5h4.3C34.7,17.4,34.9,15.7,35,14z"/>
		<path class="st0" d="M33.7,21H30v4.8C31.4,25.2,32.7,23.5,33.7,21z"/>
		<path class="st0" d="M42,12c-0.4-4.9-3.6-9.2-8.2-11.1c1.8,2.5,3,6.5,3.2,11.1H42z"/>
		<path class="st0" d="M10,32h9c1.7,0,3-1.3,3-3v-5.1c0.7,0.5,1.4,0.9,2.2,1.2c-0.9-1.2-1.5-2.6-2-4.1h-3.4c0.4,0.5,0.8,0.9,1.2,1.3
			V29c0,0.6-0.4,1-1,1h-9c-1.7,0-3,1.3-3,3v3.8C6.5,36.3,5.7,36,5,36H0v10h5.6c0.9,0,1.8,0.4,2.4,1c0.6-0.6,1.5-1,2.4-1H16V36h-5
			c-0.7,0-1.5,0.3-2,0.8V33C9,32.4,9.4,32,10,32z"/>
		<path class="st0" d="M5.6,48H0v3h7v-1.6C7,48.6,6.4,48,5.6,48z"/>
		<path class="st0" d="M9,49.4V51h7v-3h-5.6C9.6,48,9,48.6,9,49.4z"/>
		<path class="st0" d="M26.6,54H21v3h7v-1.6C28,54.6,27.4,54,26.6,54z"/>
		<path class="st0" d="M30,42.8V27h-2v15.8c-0.5-0.5-1.3-0.8-2-0.8h-5v10h5.6c0.9,0,1.8,0.4,2.4,1c0.6-0.6,1.5-1,2.4-1H37V42h-5
			C31.3,42,30.5,42.3,30,42.8z"/>
		<path class="st0" d="M30,55.4V57h7v-3h-5.6C30.6,54,30,54.6,30,55.4z"/>
		<path class="st0" d="M47.6,48H42v3h7v-1.6C49,48.6,48.4,48,47.6,48z"/>
		<path class="st0" d="M53,36c-0.7,0-1.5,0.3-2,0.8V33c0-1.7-1.3-3-3-3h-9c-0.6,0-1-0.4-1-1v-6.7c0.4-0.4,0.9-0.9,1.2-1.3h-3.4
			c-0.5,1.5-1.1,2.8-2,4.1c0.8-0.3,1.5-0.7,2.2-1.2V29c0,1.7,1.3,3,3,3h9c0.6,0,1,0.4,1,1v3.8c-0.5-0.5-1.3-0.8-2-0.8h-5v10h5.6
			c0.9,0,1.8,0.4,2.4,1c0.6-0.6,1.5-1,2.4-1H58V36H53z"/>
		<path class="st0" d="M51,49.4V51h7v-3h-5.6C51.6,48,51,48.6,51,49.4z"/>
	</g>
</g>
</svg>
