<?xml version="1.0" encoding="utf-8"?>
<!-- Generator: Adobe Illustrator 22.0.1, SVG Export Plug-In . SVG Version: 6.00 Build 0)  -->
<svg version="1.1" id="Layer_1" xmlns="http://www.w3.org/2000/svg" xmlns:xlink="http://www.w3.org/1999/xlink" x="0px" y="0px"
	 viewBox="0 0 100 125" style="enable-background:new 0 0 100 125;" xml:space="preserve">
<style type="text/css">
	.st0{fill:#FFFFFF;}
</style>
<title>PM</title>
<path class="st0" d="M49.1,97.4l-10.2-4.1l-10.8,4l-14.6-4.6l2.9-9.3l11.4,3.6L39,82.9l10.4,4.2L61.6,83l11.6,4.1l10-3.5l3.2,9.2
	l-13.2,4.7l-11.7-4.1L49.1,97.4z M83.7,35.8c0,18.7-15.1,33.8-33.8,33.8c-18.7,0-33.8-15.1-33.8-33.8C16.1,17.1,31.2,2,49.9,2
	c0,0,0,0,0,0C68.6,2,83.7,17.1,83.7,35.8z M67.9,32.6L61,25.8L47.2,39.6l-8.1-7.8l-6.8,7l15,14.5L67.9,32.6z"/>
</svg>
